<?xml version="1.0" encoding="utf-8"?>
<!-- Generator: Adobe Illustrator 19.0.0, SVG Export Plug-In . SVG Version: 6.00 Build 0)  -->
<svg version="1.1" id="Layer_1" xmlns="http://www.w3.org/2000/svg" xmlns:xlink="http://www.w3.org/1999/xlink" x="0px" y="0px"
	 viewBox="-309 311 100 100" style="enable-background:new -309 311 100 100;" xml:space="preserve">
<style type="text/css">
	.st0{fill:#FFFFFF;}
</style>
<path class="st0" d="M-241.2,361c0,0.9-0.7,1.6-1.6,1.6h-14.5v14.5c0,0.9-0.7,1.6-1.6,1.6s-1.6-0.7-1.6-1.6v-14.5h-14.5
	c-0.9,0-1.6-0.7-1.6-1.6s0.7-1.6,1.6-1.6h14.5v-14.5c0-0.9,0.7-1.6,1.6-1.6s1.6,0.7,1.6,1.6v14.5h14.5
	C-241.9,359.4-241.2,360.1-241.2,361z M-220.9,361c0,21-17.1,38.1-38.1,38.1s-38.1-17.1-38.1-38.1s17.1-38.1,38.1-38.1
	S-220.9,340-220.9,361z M-224.2,361c0-19.2-15.6-34.8-34.8-34.8s-34.8,15.6-34.8,34.8s15.6,34.8,34.8,34.8S-224.2,380.2-224.2,361z"
	/>
</svg>
