<?xml version="1.0" encoding="utf-8"?>
<!-- Generator: Adobe Illustrator 19.0.0, SVG Export Plug-In . SVG Version: 6.00 Build 0)  -->
<svg version="1.1" id="Pencil" xmlns="http://www.w3.org/2000/svg" xmlns:xlink="http://www.w3.org/1999/xlink" x="0px" y="0px"
	 viewBox="0 0 118 124" style="enable-background:new 0 0 118 124;" xml:space="preserve">
<style type="text/css">
	.st0{fill:#00A1E0;}
</style>
<g>
	<g>
		<path class="st0" d="M77.5,41.3l-5-5c-1.9-1.9-5.1-1.9-7.1,0L56,45.8l0,0L35.1,66.7l0.5,0.5l-4.7,11.4c-0.1,0.1-0.1,0.3-0.1,0.4
			c0,0.3,0.1,0.5,0.3,0.7l3,3c0.3,0.3,0.7,0.4,1.1,0.2l11.4-4.7l0.5,0.5l22.6-22.6l0,0l7.8-7.8C79.5,46.4,79.5,43.2,77.5,41.3z
			 M62.7,42l9.2,9.2L47.1,75.9l-2-2l-7.1-7.1L62.7,42z M35.1,80.8L33,78.7l4.1-10l8,8L35.1,80.8z M76.1,46.9l-2.8,2.8L64,40.5
			l2.8-2.8c1.2-1.2,3.1-1.2,4.2,0l5,5C77.3,43.9,77.3,45.8,76.1,46.9z"/>
	</g>
</g>
</svg>
