<?xml version="1.0" encoding="utf-8"?>
<!-- Generator: Adobe Illustrator 19.0.0, SVG Export Plug-In . SVG Version: 6.00 Build 0)  -->
<svg version="1.1" id="Layer_1" xmlns="http://www.w3.org/2000/svg" xmlns:xlink="http://www.w3.org/1999/xlink" x="0px" y="0px"
	 viewBox="-311 313 96 96" style="enable-background:new -311 313 96 96;" xml:space="preserve">
<style type="text/css">
	.st0{fill:#00A1E0;}
</style>
<path class="st0" d="M-218.8,325.1c-0.3-0.8-1-1.2-1.9-1.2h-84.6c-0.8,0-1.5,0.5-1.8,1.2c-0.3,0.8-0.1,1.6,0.4,2.2l33.7,33.3v35.6
	c0,0.7,0.4,1.4,1,1.7c0.3,0.2,0.7,0.3,1,0.3c0.3,0,0.7-0.1,1-0.3l16-9.1c0.6-0.4,1-1,1-1.7v-26.5l33.7-33.3
	C-218.7,326.7-218.5,325.8-218.8,325.1z"/>
</svg>
