<?xml version="1.0" encoding="utf-8"?>
<!-- Generator: Adobe Illustrator 19.0.0, SVG Export Plug-In . SVG Version: 6.00 Build 0)  -->
<svg version="1.1" id="Layer_3" xmlns="http://www.w3.org/2000/svg" xmlns:xlink="http://www.w3.org/1999/xlink" x="0px" y="0px"
	 viewBox="0 0 110.4 74.8" style="enable-background:new 0 0 110.4 74.8;" xml:space="preserve">
<style type="text/css">
	.st0{fill:#15A0DB;}
</style>
<path class="st0" d="M49.6,26.6c-0.6,0-1-0.4-1-1c0-0.6,0.4-1,1-1l21.7,0c0.6,0,1,0.4,1,1c0,0.6-0.4,1-1,1L49.6,26.6z"/>
<path class="st0" d="M43.8,27.6h-0.4c-1,0-1.8-0.8-1.8-1.8v-0.4c0-1,0.8-1.8,1.8-1.8h0.4c1,0,1.8,0.8,1.8,1.8v0.4
	C45.6,26.8,44.7,27.6,43.8,27.6z"/>
<path class="st0" d="M43.8,35.6h-0.4c-1,0-1.8-0.8-1.8-1.8v-0.4c0-1,0.8-1.8,1.8-1.8h0.4c1,0,1.8,0.8,1.8,1.8v0.4
	C45.6,34.8,44.7,35.6,43.8,35.6z"/>
<path class="st0" d="M43.8,43.6h-0.4c-1,0-1.8-0.8-1.8-1.8v-0.4c0-1,0.8-1.8,1.8-1.8h0.4c1,0,1.8,0.8,1.8,1.8v0.4
	C45.6,42.8,44.7,43.6,43.8,43.6z"/>
<path class="st0" d="M43.8,51.6h-0.4c-1,0-1.8-0.8-1.8-1.8v-0.4c0-1,0.8-1.8,1.8-1.8h0.4c1,0,1.8,0.8,1.8,1.8v0.4
	C45.6,50.8,44.7,51.6,43.8,51.6z"/>
<path class="st0" d="M49.6,34.6c-0.6,0-1-0.4-1-1c0-0.6,0.4-1,1-1l21.7,0c0.6,0,1,0.4,1,1c0,0.6-0.4,1-1,1L49.6,34.6z"/>
<path class="st0" d="M49.6,42.6c-0.6,0-1-0.4-1-1c0-0.6,0.4-1,1-1l21.7,0c0.6,0,1,0.4,1,1c0,0.6-0.4,1-1,1L49.6,42.6z"/>
<path class="st0" d="M49.6,50.6c-0.6,0-1-0.4-1-1c0-0.6,0.4-1,1-1l21.7,0c0.6,0,1,0.4,1,1c0,0.6-0.4,1-1,1L49.6,50.6z"/>
</svg>
