<?xml version="1.0" encoding="utf-8"?>
<!-- Generator: Adobe Illustrator 19.0.0, SVG Export Plug-In . SVG Version: 6.00 Build 0)  -->
<svg version="1.1" id="Layer_1" xmlns="http://www.w3.org/2000/svg" xmlns:xlink="http://www.w3.org/1999/xlink" x="0px" y="0px"
	 viewBox="-322 316 131 87" style="enable-background:new -322 316 131 87;" xml:space="preserve">
<style type="text/css">
	.st0{fill:#00A1E0;}
</style>
<g>
	<path class="st0" d="M-309,338.5l50,35.6l0,0v0l50-35.6V393h-100V338.5 M-309,336.5c-0.3,0-0.6,0.1-0.9,0.2c-0.7,0.3-1.1,1-1.1,1.8
		V393c0,1.1,0.9,2,2,2h100c1.1,0,2-0.9,2-2v-54.5c0-0.7-0.4-1.4-1.1-1.8c-0.3-0.1-0.6-0.2-0.9-0.2c-0.4,0-0.8,0.1-1.2,0.4
		l-48.8,34.7l-48.8-34.7C-308.2,336.6-308.6,336.5-309,336.5L-309,336.5z"/>
</g>
<g>
	<path class="st0" d="M-209.5,329l-49.5,35.1l-49.5-35.1H-209.5 M-209.5,327h-99c-0.9,0-1.6,0.6-1.9,1.4c-0.3,0.8,0,1.7,0.7,2.2
		l49.5,35.1c0.3,0.2,0.8,0.4,1.2,0.4s0.8-0.1,1.2-0.4l49.5-35.1c0.7-0.5,1-1.4,0.7-2.2C-207.9,327.6-208.6,327-209.5,327L-209.5,327
		z"/>
</g>
</svg>
