<?xml version="1.0" encoding="utf-8"?>
<!-- Generator: Adobe Illustrator 19.0.0, SVG Export Plug-In . SVG Version: 6.00 Build 0)  -->
<svg version="1.1" id="Layer_1" xmlns="http://www.w3.org/2000/svg" xmlns:xlink="http://www.w3.org/1999/xlink" x="0px" y="0px"
	 viewBox="0 0 75 75" style="enable-background:new 0 0 75 75;" xml:space="preserve">
<style type="text/css">
	.st0{fill:#00A1E0;}
</style>
<polygon class="st0" points="17.7,0 11.5,6.3 21.4,16.2 16.4,21.2 6.5,11.3 0.1,17.6 0.1,0 "/>
<path class="st0" d="M32.6,53.9c-1-1-1.8-2.1-2.5-3.2c-0.3-0.5-0.5-0.9-0.7-1.4c-0.2-0.5-0.4-0.9-0.6-1.4c0,0,0,0,0,0
	c-0.2-0.5-0.3-1-0.4-1.4c0,0,0-0.1,0-0.1c-0.1-0.5-0.2-1-0.2-1.5c-0.5-4.5,0.9-9.2,4.4-12.6c3.4-3.4,7.9-4.9,12.3-4.4
	c2,0.2,4.1,0.8,5.9,1.8c1.3,0.7,2.5,1.6,3.5,2.6c4.7,4.7,5.7,11.8,3,17.5c-0.1,0.2-0.2,0.5-0.4,0.7c-0.1,0.2-0.2,0.4-0.4,0.6
	c-0.1,0.2-0.3,0.4-0.4,0.6c-0.2,0.2-0.3,0.5-0.5,0.7c-0.1,0.2-0.2,0.3-0.4,0.5c-0.3,0.4-0.6,0.8-1,1.1c-0.4,0.4-0.8,0.7-1.2,1.1
	c-0.1,0.1-0.2,0.1-0.3,0.2c-0.3,0.2-0.6,0.5-1,0.7c-0.1,0.1-0.2,0.1-0.3,0.2c-0.3,0.2-0.7,0.4-1,0.6c-0.1,0.1-0.2,0.1-0.3,0.2
	c-0.4,0.2-0.7,0.3-1.1,0.5C43.6,59.5,37.1,58.4,32.6,53.9z M12.5,44.8V23.9l-5.9-5.7v32.5h17c1,2.7,2.6,5.2,4.8,7.4
	c6.7,6.7,16.7,8,24.7,3.9l11.2,11.2c2.4,2.4,6.3,2.4,8.7,0c2.4-2.4,2.4-6.3,0-8.7l-11-11c4.5-8.1,3.4-18.5-3.5-25.4
	c-2.2-2.2-4.9-3.9-7.7-4.9V6.5H18.4l5.6,5.9h20.9v9.5C39,21.4,33,23.5,28.4,28c-4.6,4.6-6.6,10.8-6.1,16.8H12.5L12.5,44.8z"/>
<path class="st0" d="M34.9,40.8h6.4v-6.4c0-1.2,1-2.2,2.3-2.2c1.2,0,2.3,1,2.3,2.2v6.4h6.4c1.2,0,2.3,1,2.3,2.3c0,1.2-1,2.2-2.3,2.2
	h-6.4v6.4c0,1.2-1,2.3-2.3,2.3c-1.2,0-2.3-1-2.3-2.3v-6.4h-6.4c-1.2,0-2.3-1-2.3-2.2C32.6,41.8,33.6,40.8,34.9,40.8z"/>
</svg>
